HIERARCHY
ROOT Hips
{
	OFFSET -0.001795 -0.223333 0.028219
	CHANNELS 6 Xposition Yposition Zposition Zrotation Yrotation Xrotation 
	JOINT LeftUpLeg
	{
		OFFSET 0.069520 -0.091406 -0.006815
		CHANNELS 3 Zrotation Yrotation Xrotation
		JOINT LeftLeg
		{
			OFFSET 0.034277 -0.375199 -0.004496
			CHANNELS 3 Zrotation Yrotation Xrotation
			JOINT LeftFoot
			{
				OFFSET -0.013596 -0.397961 -0.043693
				CHANNELS 3 Zrotation Yrotation Xrotation
				JOINT LeftToe
				{
					OFFSET 0.026358 -0.055791 0.119288
					CHANNELS 3 Zrotation Yrotation Xrotation
					End Site
					{
						OFFSET 0.000000 0.000000 0.000000
					}
				}
			}
		}
	}
	JOINT RightUpLeg
	{
		OFFSET -0.067670 -0.090522 -0.004320
		CHANNELS 3 Zrotation Yrotation Xrotation
		JOINT RightLeg
		{
			OFFSET -0.038290 -0.382569 -0.008850
			CHANNELS 3 Zrotation Yrotation Xrotation
			JOINT RightFoot
			{
				OFFSET 0.015774 -0.398415 -0.042312
				CHANNELS 3 Zrotation Yrotation Xrotation
				JOINT RightToe
				{
					OFFSET -0.025372 -0.048144 0.123348
					CHANNELS 3 Zrotation Yrotation Xrotation
					End Site
					{
						OFFSET 0.000000 0.000000 0.000000
					}
				}
			}
		}
	}
	JOINT Spine
	{
		OFFSET -0.002533 0.108963 -0.026696
		CHANNELS 3 Zrotation Yrotation Xrotation
		JOINT Spine1
		{
			OFFSET 0.005487 0.135180 0.001092
			CHANNELS 3 Zrotation Yrotation Xrotation
			JOINT Spine2
			{
				OFFSET 0.001457 0.052922 0.025425
				CHANNELS 3 Zrotation Yrotation Xrotation
				JOINT Neck
				{
					OFFSET -0.002778 0.213870 -0.042857
					CHANNELS 3 Zrotation Yrotation Xrotation
					JOINT Head
					{
						OFFSET 0.005152 0.064970 0.051349
						CHANNELS 3 Zrotation Yrotation Xrotation
						End Site
						{
							OFFSET 0.000000 0.000000 0.000000
						}
					}
				}
				JOINT LeftShoulder
				{
					OFFSET 0.078845 0.121749 -0.034090
					CHANNELS 3 Zrotation Yrotation Xrotation
					JOINT LeftArm
					{
						OFFSET 0.090977 0.030469 -0.008868
						CHANNELS 3 Zrotation Yrotation Xrotation
						JOINT LeftForeArm
						{
							OFFSET 0.259612 -0.012772 -0.027456
							CHANNELS 3 Zrotation Yrotation Xrotation
							JOINT LeftHand
							{
								OFFSET 0.249234 0.008986 -0.001171
								CHANNELS 3 Zrotation Yrotation Xrotation
								End Site
								{
									OFFSET 0.000000 0.000000 0.000000
								}
							}
						}
					}
				}
				JOINT RightShoulder
				{
					OFFSET -0.081759 0.118833 -0.038615
					CHANNELS 3 Zrotation Yrotation Xrotation
					JOINT RightArm
					{
						OFFSET -0.096012 0.032551 -0.009143
						CHANNELS 3 Zrotation Yrotation Xrotation
						JOINT RightForeArm
						{
							OFFSET -0.253742 -0.013329 -0.021401
							CHANNELS 3 Zrotation Yrotation Xrotation
							JOINT RightHand
							{
								OFFSET -0.255298 0.007772 -0.005559
								CHANNELS 3 Zrotation Yrotation Xrotation
								End Site
								{
									OFFSET 0.000000 0.000000 0.000000
								}
							}
						}
					}
				}
			}
		}
	}
}
MOTION
Frames: 5
Frame Time: 0.050000
-0.011935 0.852778 -0.022667 1.639487 -8.619400 1.481813 -10.211385 -3.914582 -24.404511 1.499063 -0.676805 37.759386 7.053944 13.644900 -17.156562 0.000000 0.000000 0.000000 -4.909961 2.054816 -24.779485 -0.985096 6.918166 61.344111 -7.812025 -18.885970 -3.263532 0.000000 0.000000 0.000000 2.440764 -1.135541 28.341469 -10.389795 3.079409 -22.838390 -3.596782 12.310097 31.443300 8.550945 -0.496101 -38.986869 0.000000 0.000000 0.000000 -16.052251 -12.814039 4.219600 -50.044616 -12.672627 -3.387656 4.140532 -80.173056 0.392573 0.000000 0.000000 0.000000 24.591781 4.701735 3.988530 56.310754 13.029332 -2.850877 15.226531 59.091817 14.381884 0.000000 0.000000 0.000000 
-0.011902 0.852848 -0.023015 1.460757 -8.805813 1.189306 -10.413894 -3.909361 -24.116138 2.121464 -0.940610 37.862718 7.111612 13.891923 -17.093246 0.000000 0.000000 0.000000 -4.622466 2.068253 -24.340426 -1.353314 7.156660 60.654404 -7.341772 -17.684282 -3.091532 0.000000 0.000000 0.000000 2.556867 -1.155477 28.564219 -10.315471 3.046906 -23.037472 -3.207221 12.285385 31.626040 8.308672 -0.317953 -39.849380 0.000000 0.000000 0.000000 -15.972020 -12.295415 3.994107 -50.198322 -12.839950 -3.357738 1.707670 -79.429837 2.472766 0.000000 0.000000 0.000000 24.341653 4.355346 3.722026 55.996727 13.058570 -2.855046 15.705317 58.377034 14.401411 0.000000 0.000000 0.000000 
-0.011772 0.852876 -0.023285 1.445051 -9.219836 0.809142 -10.638629 -3.886002 -23.732645 2.484850 -1.041272 37.887855 7.205720 14.318500 -16.981813 0.000000 0.000000 0.000000 -4.494909 2.046054 -23.735468 -1.678400 7.417363 59.845087 -6.930620 -16.611237 -3.016717 0.000000 0.000000 0.000000 2.771107 -1.178097 28.755041 -10.261089 3.032045 -23.057385 -3.305843 12.358175 31.669588 8.265792 -0.308698 -40.004680 0.000000 0.000000 0.000000 -15.704078 -11.974767 3.879326 -50.751243 -12.933012 -3.374726 0.305705 -78.379165 3.673229 0.000000 0.000000 0.000000 24.113963 4.079288 3.476901 55.837484 12.798039 -2.967341 16.582185 58.204466 14.800870 0.000000 0.000000 0.000000 
-0.011636 0.853509 -0.023451 1.378563 -9.273348 0.466166 -11.004813 -3.871124 -23.127007 3.151508 -1.346716 37.535069 7.227169 14.442201 -16.979486 0.000000 0.000000 0.000000 -4.394581 1.999616 -23.122926 -2.006270 7.526422 58.971783 -6.874837 -16.507732 -2.641028 0.000000 0.000000 0.000000 3.036741 -1.242745 28.868404 -10.159230 3.006588 -23.112869 -3.196732 12.242555 31.713246 8.027620 -0.180549 -40.473204 0.000000 0.000000 0.000000 -15.731995 -11.657512 3.756013 -51.305545 -13.309233 -3.259900 -1.813859 -77.083880 5.387708 0.000000 0.000000 0.000000 23.956434 3.714618 3.195739 55.776626 12.390191 -3.154924 18.096109 57.516420 15.396762 0.000000 0.000000 0.000000 
-0.011677 0.853920 -0.023596 1.468580 -9.340629 0.229130 -11.149395 -3.871349 -22.930692 3.221270 -1.364874 37.577118 7.236531 14.512457 -16.674802 0.000000 0.000000 0.000000 -4.408783 1.972321 -22.863244 -2.210019 7.623819 58.535947 -6.899289 -16.638297 -2.148302 0.000000 0.000000 0.000000 3.305848 -1.302682 28.840408 -9.952621 2.947249 -23.262113 -3.288013 12.207459 31.931764 7.739456 -0.091213 -40.301205 0.000000 0.000000 0.000000 -15.637109 -11.433905 3.678585 -51.860673 -13.543836 -3.221700 -2.694064 -76.186424 6.097402 0.000000 0.000000 0.000000 23.790630 3.471372 3.007532 55.975670 11.927420 -3.377498 19.341786 57.056738 15.933009 0.000000 0.000000 0.000000 
